<svg xmlns="http://www.w3.org/2000/svg" width="25" height="25" fill="none" viewBox="0 0 25 25"><path fill="#0c47a0" fill-rule="evenodd" d="M12.558 0h-.116c-.772 0-1.438 0-1.972.072-.571.077-1.12.25-1.564.694s-.618.993-.694 1.564c-.072.534-.072 1.2-.072 1.973v2.823a2.7 2.7 0 0 0-.873-.15H3.78a2.616 2.616 0 0 0-2.616 2.617v13.663h-.29a.872.872 0 0 0 0 1.744h23.255a.872.872 0 0 0 0-1.744h-.29v-7.849a2.616 2.616 0 0 0-2.617-2.616h-3.488a2.6 2.6 0 0 0-.873.149V4.303c0-.773 0-1.439-.072-1.973-.076-.57-.25-1.12-.694-1.564S15.102.15 14.53.072C13.996 0 13.33 0 12.557 0m9.535 23.256v-7.849a.87.87 0 0 0-.872-.872H17.73a.87.87 0 0 0-.872.872v7.849zm-6.977 0V4.36c0-.846-.002-1.395-.056-1.797-.05-.378-.133-.497-.2-.563-.066-.066-.185-.149-.562-.2-.404-.053-.952-.056-1.798-.056s-1.396.003-1.798.056c-.378.051-.496.134-.563.2s-.148.185-.2.563c-.053.403-.055.95-.055 1.797v18.896zm-6.977 0V9.593a.87.87 0 0 0-.872-.872H3.778a.87.87 0 0 0-.872.872v13.663z" clip-rule="evenodd"/></svg>