<svg xmlns="http://www.w3.org/2000/svg" width="28" height="28" fill="none" viewBox="0 0 28 28"><path fill="#0c47a0" d="M10.208 8.167a.875.875 0 1 0 0 1.75h8.75a.875.875 0 1 0 0-1.75zm-2.041 5.541a.875.875 0 0 1 .875-.875h7.583a.875.875 0 0 1 0 1.75H9.042a.875.875 0 0 1-.875-.875m3.208 3.792a.875.875 0 1 0 0 1.75h7.583a.875.875 0 1 0 0-1.75z"/><path fill="#0c47a0" d="M2.333 4.375c0-1.127.915-2.042 2.042-2.042h19.25c1.127 0 2.042.915 2.042 2.042v19.25a2.04 2.04 0 0 1-2.042 2.042H4.375a2.04 2.04 0 0 1-2.042-2.042zm2.042-.292a.29.29 0 0 0-.292.292v19.25c0 .161.13.292.292.292h19.25a.29.29 0 0 0 .292-.292V4.375a.29.29 0 0 0-.292-.292z"/></svg>