<svg xmlns="http://www.w3.org/2000/svg" width="43" height="42" fill="none" viewBox="0 0 43 42"><path fill="#0c47a0" d="m17.522 14.532 4.092 4.092a3.395 3.395 0 0 0 4.786 0L37.925 7.08a.437.437 0 0 1 .595 0l1.85 1.85a.8.8 0 0 0 .595.237.7.7 0 0 0 .32 0 .85.85 0 0 0 .527-.831v-6.79a.85.85 0 0 0-.849-.849h-6.79a.85.85 0 0 0-.849.525.82.82 0 0 0 .188.917l2.004 1.936a.41.41 0 0 1 0 .595l-5.093 5.092C25.852-1.074 11.266-2.9 4.168 6.475a15.28 15.28 0 0 0-3.096 9.602q.005.85.102 1.698a1.7 1.7 0 0 0 1.697 1.492h.203a1.7 1.7 0 0 0 1.495-1.883 12 12 0 0 1 0-1.392c.302-9.22 10.473-14.657 18.306-9.787a12 12 0 0 1 4.967 6.171l-3.53 3.584a.455.455 0 0 1-.613 0l-4.09-4.126a3.395 3.395 0 0 0-4.786 0L1.583 25.057a1.698 1.698 0 1 0 2.41 2.392l.985-.984a15.93 15.93 0 0 0 11.492 5.093 15.28 15.28 0 0 0 9.335-3.157.44.44 0 0 1 .56 0l2.376 2.376a.42.42 0 0 1 .104.441 2.54 2.54 0 0 0 .595 2.648l6.585 6.603c1.757 1.934 4.949 1.239 5.745-1.251a3.4 3.4 0 0 0-.959-3.553l-6.57-6.636a2.6 2.6 0 0 0-1.798-.747q-.438 0-.85.152a.42.42 0 0 1-.44-.102l-2.377-2.376a.425.425 0 0 1 0-.56 15.6 15.6 0 0 0 2.377-4.533 1.699 1.699 0 0 0-2.914-1.654c-.143.178-.25.383-.312.603a12.005 12.005 0 0 1-11.406 8.265 12.43 12.43 0 0 1-9.065-4.022l9.506-9.523a.425.425 0 0 1 .56 0"/></svg>