<svg xmlns="http://www.w3.org/2000/svg" width="42" height="42" fill="none" viewBox="0 0 42 42"><path fill="#393939" d="M38.802 19.32H33.82c-.705-5.968-5.437-10.7-11.404-11.405v-4.98a.327.327 0 0 0-.326-.326h-2.446a.327.327 0 0 0-.326.326v4.98C13.352 8.62 8.62 13.352 7.915 19.32h-4.98a.327.327 0 0 0-.327.326v2.446c0 .18.147.326.326.326h4.981c.705 5.967 5.437 10.699 11.404 11.404v4.98c0 .18.147.327.326.327h2.446c.179 0 .326-.147.326-.326V33.82c5.967-.705 10.699-5.437 11.404-11.404h4.98c.18 0 .326-.147.326-.326v-2.446a.327.327 0 0 0-.326-.326M20.867 30.812a9.943 9.943 0 0 1-9.945-9.945 9.943 9.943 0 0 1 9.945-9.945 9.943 9.943 0 0 1 9.945 9.945 9.943 9.943 0 0 1-9.945 9.945"/><path fill="#393939" d="M20.868 15.977a4.83 4.83 0 0 0-3.456 1.435 4.85 4.85 0 0 0-1.435 3.456 4.85 4.85 0 0 0 1.435 3.456 4.87 4.87 0 0 0 3.456 1.435c1.304 0 2.531-.51 3.456-1.435a4.87 4.87 0 0 0 1.435-3.456c0-1.304-.51-2.53-1.435-3.456a4.83 4.83 0 0 0-3.456-1.435"/></svg>