<svg xmlns="http://www.w3.org/2000/svg" width="13" height="17" fill="none" viewBox="0 0 13 17"><path fill="#393939" d="M12.094 6.051a6.047 6.047 0 1 0-9.844 4.702v5.423a.422.422 0 0 0 .61.378l3.187-1.593 3.187 1.593a.423.423 0 0 0 .61-.378v-5.423a6.04 6.04 0 0 0 2.25-4.702m-11.25 0a5.203 5.203 0 1 1 5.203 5.203A5.21 5.21 0 0 1 .844 6.051M9 15.494 6.235 14.11a.42.42 0 0 0-.377 0l-2.764 1.383v-4.17a6.03 6.03 0 0 0 5.906 0zM6.047 9.848a3.797 3.797 0 1 0 0-7.594 3.797 3.797 0 0 0 0 7.594m0-6.75a2.953 2.953 0 1 1 0 5.906 2.953 2.953 0 0 1 0-5.906"/></svg>