<svg xmlns="http://www.w3.org/2000/svg" width="13" height="17" fill="none" viewBox="0 0 13 17"><path fill="#393939" d="m.96 15.276 2.37-.969a20 20 0 0 1-.535-1.902q-.222-.969-.323-1.963l-1.256.84a.65.65 0 0 0-.193.212.54.54 0 0 0-.065.267zm3.334-1.08h3.834q.431-1.16.694-2.539.264-1.378.264-2.87 0-2.17-.661-3.995-.662-1.826-2.214-3.527-1.553 1.702-2.214 3.528-.66 1.824-.661 3.995 0 1.493.264 2.87.263 1.377.694 2.538m1.917-5.271q-.606 0-1.022-.416a1.39 1.39 0 0 1-.416-1.022q.001-.606.416-1.021a1.4 1.4 0 0 1 1.022-.416q.605 0 1.022.416.415.415.415 1.021 0 .607-.415 1.022a1.4 1.4 0 0 1-1.022.416m5.252 6.35V11.78a.6.6 0 0 0-.064-.276.6.6 0 0 0-.194-.223l-1.255-.839a18 18 0 0 1-.37 2.156q-.267 1.162-.488 1.727zM6.21 0Q8.196 1.76 9.12 3.97q.924 2.207.924 4.919 0 .11.01.23t-.01.249l1.663 1.12q.333.208.524.556.19.348.19.736v4.904l-3.808-1.53H3.79L0 16.684v-4.922q0-.387.182-.736.18-.348.515-.556l1.68-1.121v-.46q0-2.713.925-4.92Q4.226 1.761 6.211 0"/></svg>