<svg xmlns="http://www.w3.org/2000/svg" width="21" height="21" fill="none" viewBox="0 0 21 21"><path stroke="#393939" stroke-linecap="round" stroke-linejoin="round" stroke-width="1.5" d="m5.886 8 4.483-1.632 1.63-4.482a.533.533 0 0 1 1.001 0l1.632 4.483 4.483 1.63a.533.533 0 0 1 0 1.001l-4.484 1.632L13 15.115a.532.532 0 0 1-1.001 0l-1.632-4.484-4.482-1.63a.533.533 0 0 1 0-1.001"/><path stroke="#393939" stroke-linecap="round" stroke-linejoin="round" d="m1.472 15.733 2.391-.87.87-2.39a.284.284 0 0 1 .534 0l.87 2.39 2.39.87a.284.284 0 0 1 0 .534l-2.39.87-.87 2.391a.284.284 0 0 1-.534 0l-.87-2.391-2.39-.87a.285.285 0 0 1 0-.534"/></svg>