<svg xmlns="http://www.w3.org/2000/svg" width="31" height="31" fill="none" viewBox="0 0 31 31"><path fill="#0c47a0" d="M24.542 26.48a3.15 3.15 0 0 1-2.05-.727 3.07 3.07 0 0 1-1.104-1.857h-7.18q-1.883 0-3.202-1.319-1.32-1.32-1.319-3.202 0-1.884 1.32-3.202 1.318-1.32 3.201-1.319h2.583a3.1 3.1 0 0 0 2.282-.95 3.12 3.12 0 0 0 .948-2.284q0-1.335-.948-2.279a3.12 3.12 0 0 0-2.282-.945H9.61a3.1 3.1 0 0 1-1.106 1.857 3.13 3.13 0 0 1-2.046.726q-1.346 0-2.286-.94a3.1 3.1 0 0 1-.943-2.286q0-1.346.943-2.288a3.12 3.12 0 0 1 2.286-.944q1.16 0 2.046.727.885.726 1.107 1.856h7.18q1.884 0 3.203 1.319 1.318 1.32 1.318 3.202 0 1.883-1.319 3.202-1.319 1.32-3.201 1.319h-2.584q-1.332 0-2.28.95a3.12 3.12 0 0 0-.949 2.284q0 1.335.95 2.279.947.945 2.28.945h7.18a3.1 3.1 0 0 1 1.107-1.856 3.14 3.14 0 0 1 2.046-.727q1.345 0 2.286.941.942.94.943 2.285 0 1.346-.943 2.288a3.12 3.12 0 0 1-2.286.944M6.458 9.687q.797 0 1.368-.57.57-.57.57-1.368 0-.796-.57-1.368-.57-.57-1.368-.57-.796 0-1.368.57-.57.57-.57 1.368 0 .797.57 1.368.57.57 1.368.57"/></svg>